<svg xmlns="http://www.w3.org/2000/svg" xmlns:xlink="http://www.w3.org/1999/xlink" contentStyleType="text/css" data-diagram-type="SEQUENCE" height="413px" preserveAspectRatio="none" style="width:334px;height:413px;background:#FFFFFF;" version="1.1" viewBox="0 0 334 413" width="334px" zoomAndPan="magnify"><defs/><g><rect fill="none" height="158.6641" style="stroke:#000000;stroke-width:1.5;" width="249.9993" x="79.0002" y="127.4297"/><g><title>&#39015;&#23458;</title><rect fill="#000000" fill-opacity="0.00000" height="250.9297" width="8" x="17.9999" y="81.2969"/><line style="stroke:#181818;stroke-width:0.5;stroke-dasharray:5.0,5.0;" x1="21" x2="21" y1="81.2969" y2="332.2266"/></g><g><title>&#12471;&#12473;&#12486;&#12512;</title><rect fill="#000000" fill-opacity="0.00000" height="250.9297" width="8" x="120" y="81.2969"/><line style="stroke:#181818;stroke-width:0.5;stroke-dasharray:5.0,5.0;" x1="123.0002" x2="123.0002" y1="81.2969" y2="332.2266"/></g><g><title>&#22312;&#24235;&#31649;&#29702;</title><rect fill="#000000" fill-opacity="0.00000" height="250.9297" width="8" x="199.9998" y="81.2969"/><line style="stroke:#181818;stroke-width:0.5;stroke-dasharray:5.0,5.0;" x1="202.9999" x2="202.9999" y1="81.2969" y2="332.2266"/></g><g><title>&#27770;&#28168;&#20966;&#29702;</title><rect fill="#000000" fill-opacity="0.00000" height="250.9297" width="8" x="279.9995" y="81.2969"/><line style="stroke:#181818;stroke-width:0.5;stroke-dasharray:5.0,5.0;" x1="282.9997" x2="282.9997" y1="81.2969" y2="332.2266"/></g><g class="participant participant-head" data-participant="&#39015;&#23458;"><text fill="#000000" font-family="sans-serif" font-size="14" lengthAdjust="spacing" textLength="27.9999" x="5" y="77.9951">&#39015;&#23458;</text><ellipse cx="21.9999" cy="13.5" fill="#E2E2F0" rx="8" ry="8" style="stroke:#181818;stroke-width:0.5;"/><path d="M21.9999,21.5 L21.9999,48.5 M8.9999,29.5 L34.9999,29.5 M21.9999,48.5 L8.9999,63.5 M21.9999,48.5 L34.9999,63.5" fill="none" style="stroke:#181818;stroke-width:0.5;"/></g><g class="participant participant-tail" data-participant="&#39015;&#23458;"><text fill="#000000" font-family="sans-serif" font-size="14" lengthAdjust="spacing" textLength="27.9999" x="5" y="344.2217">&#39015;&#23458;</text><ellipse cx="21.9999" cy="356.0234" fill="#E2E2F0" rx="8" ry="8" style="stroke:#181818;stroke-width:0.5;"/><path d="M21.9999,364.0234 L21.9999,391.0234 M8.9999,372.0234 L34.9999,372.0234 M21.9999,391.0234 L8.9999,406.0234 M21.9999,391.0234 L34.9999,406.0234" fill="none" style="stroke:#181818;stroke-width:0.5;"/></g><g class="participant participant-head" data-participant="&#12471;&#12473;&#12486;&#12512;"><rect fill="#E2E2F0" height="30.2969" rx="2.5" ry="2.5" style="stroke:#181818;stroke-width:0.5;" width="69.9998" x="89.0002" y="50"/><text fill="#000000" font-family="sans-serif" font-size="14" lengthAdjust="spacing" textLength="55.9998" x="96.0002" y="69.9951">&#12471;&#12473;&#12486;&#12512;</text></g><g class="participant participant-tail" data-participant="&#12471;&#12473;&#12486;&#12512;"><rect fill="#E2E2F0" height="30.2969" rx="2.5" ry="2.5" style="stroke:#181818;stroke-width:0.5;" width="69.9998" x="89.0002" y="331.2266"/><text fill="#000000" font-family="sans-serif" font-size="14" lengthAdjust="spacing" textLength="55.9998" x="96.0002" y="351.2217">&#12471;&#12473;&#12486;&#12512;</text></g><g class="participant participant-head" data-participant="&#22312;&#24235;&#31649;&#29702;"><rect fill="#E2E2F0" height="30.2969" rx="2.5" ry="2.5" style="stroke:#181818;stroke-width:0.5;" width="69.9998" x="168.9999" y="50"/><text fill="#000000" font-family="sans-serif" font-size="14" lengthAdjust="spacing" textLength="55.9998" x="175.9999" y="69.9951">&#22312;&#24235;&#31649;&#29702;</text></g><g class="participant participant-tail" data-participant="&#22312;&#24235;&#31649;&#29702;"><rect fill="#E2E2F0" height="30.2969" rx="2.5" ry="2.5" style="stroke:#181818;stroke-width:0.5;" width="69.9998" x="168.9999" y="331.2266"/><text fill="#000000" font-family="sans-serif" font-size="14" lengthAdjust="spacing" textLength="55.9998" x="175.9999" y="351.2217">&#22312;&#24235;&#31649;&#29702;</text></g><g class="participant participant-head" data-participant="&#27770;&#28168;&#20966;&#29702;"><rect fill="#E2E2F0" height="30.2969" rx="2.5" ry="2.5" style="stroke:#181818;stroke-width:0.5;" width="69.9998" x="248.9997" y="50"/><text fill="#000000" font-family="sans-serif" font-size="14" lengthAdjust="spacing" textLength="55.9998" x="255.9997" y="69.9951">&#27770;&#28168;&#20966;&#29702;</text></g><g class="participant participant-tail" data-participant="&#27770;&#28168;&#20966;&#29702;"><rect fill="#E2E2F0" height="30.2969" rx="2.5" ry="2.5" style="stroke:#181818;stroke-width:0.5;" width="69.9998" x="248.9997" y="331.2266"/><text fill="#000000" font-family="sans-serif" font-size="14" lengthAdjust="spacing" textLength="55.9998" x="255.9997" y="351.2217">&#27770;&#28168;&#20966;&#29702;</text></g><g class="message" data-participant-1="&#39015;&#23458;" data-participant-2="&#12471;&#12473;&#12486;&#12512;"><polygon fill="#181818" points="112,108.4297,122,112.4297,112,116.4297,116,112.4297" style="stroke:#181818;stroke-width:1;"/><line style="stroke:#181818;stroke-width:1;" x1="21.9999" x2="118" y1="112.4297" y2="112.4297"/><text fill="#000000" font-family="sans-serif" font-size="13" lengthAdjust="spacing" textLength="52.0001" x="28.9999" y="107.3638">&#27880;&#25991;&#36865;&#20449;</text></g><path d="M79.0002,127.4297 L176.0002,127.4297 L176.0002,134.5625 L166.0002,144.5625 L79.0002,144.5625 L79.0002,127.4297" fill="#EEEEEE" style="stroke:#000000;stroke-width:1.5;"/><rect fill="none" height="158.6641" style="stroke:#000000;stroke-width:1.5;" width="249.9993" x="79.0002" y="127.4297"/><text fill="#000000" font-family="sans-serif" font-size="13" font-weight="bold" lengthAdjust="spacing" textLength="52.0001" x="94.0002" y="140.4966">&#20006;&#34892;&#20966;&#29702;</text><g class="message" data-participant-1="&#12471;&#12473;&#12486;&#12512;" data-participant-2="&#22312;&#24235;&#31649;&#29702;"><polygon fill="#181818" points="191.9998,161.6953,201.9998,165.6953,191.9998,169.6953,195.9998,165.6953" style="stroke:#181818;stroke-width:1;"/><line style="stroke:#181818;stroke-width:1;" x1="124" x2="197.9998" y1="165.6953" y2="165.6953"/><text fill="#000000" font-family="sans-serif" font-size="13" lengthAdjust="spacing" textLength="52.0001" x="131" y="160.6294">&#22312;&#24235;&#30906;&#35469;</text></g><g class="message" data-participant-1="&#22312;&#24235;&#31649;&#29702;" data-participant-2="&#12471;&#12473;&#12486;&#12512;"><polygon fill="#181818" points="135,190.8281,125,194.8281,135,198.8281,131,194.8281" style="stroke:#181818;stroke-width:1;"/><line style="stroke:#181818;stroke-width:1;stroke-dasharray:2.0,2.0;" x1="129" x2="202.9998" y1="194.8281" y2="194.8281"/><text fill="#000000" font-family="sans-serif" font-size="13" lengthAdjust="spacing" textLength="44.7574" x="141" y="189.7622">&#22312;&#24235;OK</text></g><g class="message" data-participant-1="&#12471;&#12473;&#12486;&#12512;" data-participant-2="&#27770;&#28168;&#20966;&#29702;"><polygon fill="#181818" points="271.9995,244.9609,281.9995,248.9609,271.9995,252.9609,275.9995,248.9609" style="stroke:#181818;stroke-width:1;"/><line style="stroke:#181818;stroke-width:1;" x1="124" x2="277.9995" y1="248.9609" y2="248.9609"/><text fill="#000000" font-family="sans-serif" font-size="13" lengthAdjust="spacing" textLength="52.0001" x="131" y="243.895">&#27770;&#28168;&#23455;&#34892;</text></g><g class="message" data-participant-1="&#27770;&#28168;&#20966;&#29702;" data-participant-2="&#12471;&#12473;&#12486;&#12512;"><polygon fill="#181818" points="135,274.0938,125,278.0938,135,282.0938,131,278.0938" style="stroke:#181818;stroke-width:1;"/><line style="stroke:#181818;stroke-width:1;stroke-dasharray:2.0,2.0;" x1="129" x2="282.9995" y1="278.0938" y2="278.0938"/><text fill="#000000" font-family="sans-serif" font-size="13" lengthAdjust="spacing" textLength="52.0001" x="141" y="273.0278">&#27770;&#28168;&#23436;&#20102;</text></g><g class="message" data-participant-1="&#12471;&#12473;&#12486;&#12512;" data-participant-2="&#39015;&#23458;"><polygon fill="#181818" points="32.9999,310.2266,22.9999,314.2266,32.9999,318.2266,28.9999,314.2266" style="stroke:#181818;stroke-width:1;"/><line style="stroke:#181818;stroke-width:1;stroke-dasharray:2.0,2.0;" x1="26.9999" x2="123" y1="314.2266" y2="314.2266"/><text fill="#000000" font-family="sans-serif" font-size="13" lengthAdjust="spacing" textLength="78.0001" x="38.9999" y="309.1606">&#27880;&#25991;&#23436;&#20102;&#36890;&#30693;</text></g><!--SRC=[IqmkoIzIUBbm-TDrYxWA4ejACfCp2nBpIXGUDsr_tBJpSNFRu-O5A19FvwnukclrytKBdqzeGv5ujd7NinqTJzkNWIIu84OgwDgXcAHWfV1iyufdqzfVDZG-sR-GYokzAB-qGE79ZcKl5lP0jIgWwW2QW6mbq0GeTz6k5wjwWQfHP7KnBOJ8-ti3bTRKr60n7jdX80T2kElc0vsae01KZoAFnGAOXfudkzguKlDIkBXGRG3gW8O6pFSGjIyRPZsVlnG0]--></g></svg>